<svg id="Layer_1" data-name="Layer 1" xmlns="http://www.w3.org/2000/svg" viewBox="0 0 686 546"><defs><style>.cls-1{fill:#0c1a2d;}</style></defs><polygon class="cls-1" points="332.47 162.31 296.98 93.86 269.09 98.93 262.75 126.81 332.47 162.31"/><polygon class="cls-1" points="351.49 182.59 386.98 251.03 414.86 245.97 421.2 218.08 351.49 182.59"/><polygon class="cls-1" points="351.49 162.31 386.98 93.86 414.86 98.93 421.2 126.81 351.49 162.31"/><polygon class="cls-1" points="332.47 182.59 296.98 251.03 269.09 245.97 262.75 218.08 332.47 182.59"/><polyline class="cls-1" points="414.86 98.93 421.2 126.81 351.49 162.31"/><polyline class="cls-1" points="414.86 245.97 421.2 218.08 351.49 182.59"/><polyline class="cls-1" points="269.09 98.93 262.75 126.81 332.47 162.31"/><polyline class="cls-1" points="269.09 245.97 262.75 218.08 332.47 182.59"/><path class="cls-1" d="M191.1,365.28V355H180v-7.8h19.28v22.13s-6.19,6.13-18,6.13c-14.26,0-25.61-10.79-25.61-25.2s11-25.19,25.27-25.19c12,0,18,7.31,18,7.31l-5.7,5.56s-4-5.08-12.32-5.08c-9.82,0-16.78,8-16.78,17.4a17.17,17.17,0,0,0,17.12,17.4C188.24,367.64,191.1,365.28,191.1,365.28Z"/><path class="cls-1" d="M244.56,325.89h8.49L272,374.6h-8.42l-4.45-11.55h-20.6l-4.46,11.55h-8.42ZM241.5,355.4h14.61l-7.3-19Z"/><path class="cls-1" d="M299.83,325.89h8.35v40.78h20.75v7.93h-29.1Z"/><path class="cls-1" d="M371.11,325.89h8.49l18.93,48.71h-8.42l-4.45-11.55h-20.6L360.6,374.6h-8.42Zm-3.06,29.51h14.61l-7.3-19Z"/><path class="cls-1" d="M442.11,356.23,431.46,374.6h-9.39l15.73-25.19L423,325.89h9.88l10,16.84,9.81-16.84h9.19l-14.76,23.52L463,374.6H453Z"/><path class="cls-1" d="M511.65,374.6H503.3V355.4l-16.63-29.51h9.18l11.9,21.78,11.91-21.78h8.63L511.65,355.4Z"/><path class="cls-1" d="M89.27,436.55h10v4.16h-10v11H84.88V426.14H100v4.16H89.27Z"/><path class="cls-1" d="M131.89,426.14h4.38v16.29c0,5.62-3.83,9.71-9.86,9.71s-9.86-4.09-9.86-9.71V426.14h4.38v15.74c0,3.65,1.83,6.1,5.48,6.1s5.48-2.45,5.48-6.1Z"/><path class="cls-1" d="M158,426.14l12.79,17.6v-17.6h4.38v25.57h-4l-12.78-17.57v17.57H154.1V426.14Z"/><path class="cls-1" d="M213.92,438.92c0,7.38-5.18,12.79-12.63,12.79H193V426.14h8.26C208.74,426.14,213.92,431.54,213.92,438.92Zm-4.45,0c0-4.67-3.14-8.62-8.11-8.62h-4v17.24h4C206.33,447.54,209.47,443.56,209.47,438.92Z"/><path class="cls-1" d="M246.54,426.14,254.87,439l8.33-12.85h4.05v25.57h-4.38V434.54l-8,12.16-8-12.16v17.17h-4.38V426.14Z"/><path class="cls-1" d="M292.52,426.14H297l9.94,25.57H302.5l-2.34-6.07H289.35L287,451.71h-4.42Zm-1.6,15.48h7.67l-3.84-10Z"/><path class="cls-1" d="M326.2,426.14,339,443.74v-17.6h4.39v25.57h-3.95l-12.78-17.57v17.57h-4.39V426.14Z"/><path class="cls-1" d="M368.64,426.14h4.46L383,451.71h-4.42l-2.34-6.07H365.46l-2.33,6.07h-4.42ZM367,441.62h7.67l-3.83-10Z"/><path class="cls-1" d="M415.21,446.81v-5.4H409.4v-4.1h10.12v11.62s-3.25,3.21-9.46,3.21a13.13,13.13,0,0,1-13.44-13.22,13,13,0,0,1,13.26-13.22,12.67,12.67,0,0,1,9.46,3.83l-3,2.93a8.45,8.45,0,0,0-6.46-2.67,8.86,8.86,0,0,0-8.81,9.13,9,9,0,0,0,9,9.13C413.71,448.05,415.21,446.81,415.21,446.81Z"/><path class="cls-1" d="M440.92,436.51h10.23v4.16H440.92v6.87h11.33v4.17H436.54V426.14H452v4.16H440.92Z"/><path class="cls-1" d="M473,426.14,481.28,439l8.33-12.85h4.05v25.57h-4.38V434.54l-8,12.16-8-12.16v17.17H468.9V426.14Z"/><path class="cls-1" d="M515.87,436.51H526.1v4.16H515.87v6.87h11.32v4.17h-15.7V426.14H527v4.16h-11.1Z"/><path class="cls-1" d="M547.79,426.14l12.79,17.6v-17.6H565v25.57H561l-12.79-17.57v17.57h-4.38V426.14Z"/><path class="cls-1" d="M587.64,430.3h-7v-4.16h18.48v4.16H592v21.41h-4.38Z"/></svg>