<?xml version="1.0" encoding="utf-8"?>
<!-- Generator: Adobe Illustrator 25.2.3, SVG Export Plug-In . SVG Version: 6.00 Build 0)  -->
<svg version="1.1" id="Layer_1" xmlns="http://www.w3.org/2000/svg" xmlns:xlink="http://www.w3.org/1999/xlink" x="0px" y="0px"
	 viewBox="0 0 1440 1173.04" style="enable-background:new 0 0 1440 1173.04;" xml:space="preserve">
<style type="text/css">
	.st0{fill:none;stroke:#D7E6F5;stroke-width:2.2651;stroke-miterlimit:10;}
	.st1{fill:#D7E6F5;}
	.st2{fill:#315D83;}
	.st3{font-family:'Merriweather-Regular';}
	.st4{font-size:30.189px;}
	.st5{font-size:30.1891px;}
	.st6{font-size:30.1894px;}
	.st7{fill:none;stroke:#315D83;stroke-width:2.2651;stroke-miterlimit:10;}
	.st8{fill:none;stroke:#315D83;stroke-width:2.0487;stroke-miterlimit:10;}
	.st9{fill:#F7FBFE;}
	.st10{fill:#1B2B44;}
	.st11{font-family:'Merriweather-Bold';}
	.st12{font-size:40px;}
	.st13{fill-rule:evenodd;clip-rule:evenodd;fill:#1B2B44;}
</style>
<g>
	<g>
		<g>
			<line class="st0" x1="1115.39" y1="422.17" x2="1370.07" y2="571.44"/>
			<g>
				<path class="st1" d="M1367.73,575c2.03,1.19,4.64,0.51,5.83-1.52s0.51-4.64-1.52-5.83s-4.64-0.51-5.83,1.52
					C1365.02,571.21,1365.7,573.82,1367.73,575z"/>
			</g>
		</g>
	</g>
	<g>
		<g>
			<line class="st0" x1="879.21" y1="262.39" x2="1274.99" y2="318.12"/>
			<g>
				<path class="st1" d="M1273.86,323.98c3.26,0.46,6.28-1.81,6.73-5.07c0.46-3.26-1.81-6.28-5.07-6.73
					c-3.26-0.46-6.28,1.81-6.73,5.07C1268.33,320.51,1270.6,323.52,1273.86,323.98z"/>
			</g>
		</g>
	</g>
	<g>
		<g>
			<line class="st0" x1="856.4" y1="877.77" x2="1110.16" y2="772.22"/>
			<g>
				<path class="st1" d="M1112.18,777.84c3.04-1.26,4.48-4.75,3.21-7.79c-1.26-3.04-4.75-4.48-7.79-3.21
					c-3.04,1.26-4.48,4.75-3.21,7.79C1105.65,777.67,1109.14,779.1,1112.18,777.84z"/>
			</g>
		</g>
	</g>
	<g>
		<g>
			<line class="st0" x1="856.4" y1="877.77" x2="467.06" y2="934.25"/>
			<g>
				<path class="st1" d="M466.5,928.31c-3.26,0.47-5.52,3.5-5.04,6.76c0.47,3.26,3.5,5.52,6.76,5.04c3.26-0.47,5.52-3.5,5.04-6.76
					S469.76,927.84,466.5,928.31z"/>
			</g>
		</g>
	</g>
	<g>
		<g>
			<line class="st0" x1="620.53" y1="777.67" x2="314.6" y2="871.27"/>
			<g>
				<path class="st1" d="M313.14,865.48c-3.15,0.96-4.92,4.3-3.96,7.44c0.96,3.15,4.3,4.92,7.44,3.96c3.15-0.96,4.92-4.3,3.96-7.44
					C319.62,866.29,316.29,864.52,313.14,865.48z"/>
			</g>
		</g>
	</g>
	<g>
		<g>
			<line class="st0" x1="680.19" y1="1024.1" x2="213.05" y2="1028.34"/>
			<g>
				<path class="st1" d="M213.29,1022.37c-3.29,0.03-5.94,2.72-5.91,6.02c0.03,3.29,2.72,5.94,6.02,5.91
					c3.29-0.03,5.94-2.72,5.91-6.02C219.28,1024.99,216.59,1022.34,213.29,1022.37z"/>
			</g>
		</g>
	</g>
	<g>
		<g>
			<line class="st0" x1="321.44" y1="680.45" x2="18.36" y2="834.07"/>
			<g>
				<path class="st1" d="M15.93,828.61c-2.94,1.49-4.11,5.08-2.62,8.01s5.08,4.11,8.01,2.62c2.94-1.49,4.11-5.08,2.62-8.01
					C22.45,828.3,18.87,827.12,15.93,828.61z"/>
			</g>
		</g>
	</g>
	<g>
		<g>
			<line class="st0" x1="321.44" y1="680.45" x2="174.03" y2="554.9"/>
			<g>
				<path class="st1" d="M178.13,550.56c-2.51-2.13-6.27-1.83-8.4,0.67c-2.13,2.51-1.83,6.27,0.67,8.4c2.51,2.13,6.27,1.83,8.4-0.67
					S180.63,552.69,178.13,550.56z"/>
			</g>
		</g>
	</g>
	<g>
		<g>
			<line class="st0" x1="345.86" y1="402" x2="116.42" y2="152.38"/>
			<g>
				<path class="st1" d="M121.01,148.56c-2.23-2.42-6-2.58-8.42-0.35s-2.58,6-0.35,8.42s6,2.58,8.42,0.35
					C123.08,154.76,123.24,150.98,121.01,148.56z"/>
			</g>
		</g>
	</g>
	<g>
		<g>
			<line class="st0" x1="-222.99" y1="24.25" x2="-36.09" y2="366.38"/>
			<g>
				<path class="st1" d="M-41.46,368.98c1.58,2.89,5.2,3.95,8.09,2.37c2.89-1.58,3.95-5.2,2.37-8.09c-1.58-2.89-5.2-3.95-8.09-2.37
					C-41.98,362.47-43.04,366.09-41.46,368.98z"/>
			</g>
		</g>
	</g>
	<line class="st0" x1="344.41" y1="402" x2="175.43" y2="554.16"/>
	<line class="st0" x1="175.43" y1="554.16" x2="-35.64" y2="365.69"/>
	<line class="st0" x1="-35.64" y1="365.69" x2="-222.99" y2="451.96"/>
	<g>
		<g>
			<line class="st0" x1="856.4" y1="877.77" x2="680.32" y2="1022.61"/>
			<g>
				<path class="st1" d="M676.77,1017.81c-2.54,2.09-2.91,5.85-0.82,8.39c2.09,2.54,5.85,2.91,8.39,0.82
					c2.54-2.09,2.91-5.85,0.82-8.39S679.31,1015.72,676.77,1017.81z"/>
			</g>
		</g>
	</g>
	<g>
		<g>
			<line class="st0" x1="677.98" y1="1022.49" x2="855.88" y2="1081.02"/>
			<g>
				<path class="st1" d="M853.73,1086.59c3.13,1.03,6.5-0.67,7.53-3.8s-0.67-6.5-3.8-7.53s-6.5,0.67-7.53,3.8
					C848.9,1082.19,850.6,1085.56,853.73,1086.59z"/>
			</g>
		</g>
	</g>
	<g>
		<g>
			<line class="st0" x1="1372.43" y1="572.88" x2="1591.48" y2="766.3"/>
			<g>
				<path class="st1" d="M1587.32,770.57c2.47,2.18,6.24,1.94,8.41-0.52s1.94-6.24-0.52-8.41c-2.47-2.18-6.24-1.94-8.41,0.52
					C1584.61,764.62,1584.85,768.39,1587.32,770.57z"/>
			</g>
		</g>
	</g>
	<g>
		<g>
			<line class="st0" x1="1220.75" y1="1040.69" x2="1555.92" y2="936.75"/>
			<g>
				<path class="st1" d="M1557.4,942.53c3.14-0.98,4.9-4.32,3.93-7.46c-0.98-3.14-4.32-4.9-7.46-3.93c-3.14,0.98-4.9,4.32-3.93,7.46
					C1550.92,941.74,1554.26,943.5,1557.4,942.53z"/>
			</g>
		</g>
	</g>
	<g>
		<g>
			<line class="st0" x1="1220.75" y1="1040.69" x2="1299.18" y2="1264.79"/>
			<g>
				<path class="st1" d="M1293.45,1266.48c1.09,3.11,4.49,4.74,7.6,3.66c3.11-1.09,4.74-4.49,3.66-7.6
					c-1.09-3.11-4.49-4.74-7.6-3.66C1294,1259.97,1292.37,1263.37,1293.45,1266.48z"/>
			</g>
		</g>
	</g>
	<g>
		<g>
			<line class="st0" x1="856.53" y1="1081.93" x2="1008.76" y2="1265.77"/>
			<g>
				<path class="st1" d="M1003.98,1269.34c2.1,2.54,5.86,2.89,8.39,0.79c2.54-2.1,2.89-5.86,0.79-8.39
					c-2.1-2.54-5.86-2.89-8.39-0.79C1002.23,1263.05,1001.88,1266.81,1003.98,1269.34z"/>
			</g>
		</g>
	</g>
	<g>
		<g>
			<line class="st0" x1="1220.75" y1="1040.69" x2="1174.88" y2="1261.21"/>
			<g>
				<path class="st1" d="M1169.1,1259.7c-0.67,3.22,1.4,6.38,4.62,7.05s6.38-1.4,7.05-4.62s-1.4-6.38-4.62-7.05
					S1169.77,1256.48,1169.1,1259.7z"/>
			</g>
		</g>
	</g>
	<g>
		<g>
			<line class="st0" x1="680.25" y1="1023.63" x2="768.33" y2="1213.01"/>
			<g>
				<path class="st1" d="M762.8,1215.26c1.39,2.98,4.93,4.28,7.92,2.89c2.98-1.39,4.28-4.93,2.89-7.92
					c-1.39-2.98-4.93-4.28-7.92-2.89C762.71,1208.73,761.41,1212.27,762.8,1215.26z"/>
			</g>
		</g>
	</g>
	<g>
		<g>
			<line class="st0" x1="856.4" y1="877.77" x2="856.4" y2="1230.43"/>
			<g>
				<path class="st1" d="M850.44,1230.13c0,3.29,2.67,5.96,5.96,5.96c3.29,0,5.96-2.67,5.96-5.96c0-3.29-2.67-5.96-5.96-5.96
					C853.11,1224.17,850.44,1226.84,850.44,1230.13z"/>
			</g>
		</g>
	</g>
	<g>
		<g>
			<line class="st0" x1="1109.64" y1="770.05" x2="1222.11" y2="1041.2"/>
			<g>
				<path class="st1" d="M1216.49,1043.21c1.26,3.04,4.75,4.48,7.79,3.22s4.48-4.75,3.22-7.79s-4.75-4.48-7.79-3.22
					C1216.67,1036.68,1215.23,1040.17,1216.49,1043.21z"/>
			</g>
		</g>
	</g>
	<g>
		<g>
			<line class="st0" x1="1277.24" y1="317.78" x2="1486.49" y2="229.97"/>
			<g>
				<path class="st1" d="M1488.52,235.58c3.04-1.27,4.46-4.77,3.19-7.8c-1.27-3.04-4.77-4.46-7.8-3.19
					c-3.04,1.27-4.46,4.77-3.19,7.8C1481.99,235.43,1485.49,236.85,1488.52,235.58z"/>
			</g>
		</g>
	</g>
	<g>
		<g>
			<line class="st0" x1="1485.69" y1="230.3" x2="1698.15" y2="325.09"/>
			<g>
				<path class="st1" d="M1695.45,330.41c3.01,1.34,6.53-0.01,7.87-3.02s-0.01-6.53-3.02-7.87s-6.53,0.01-7.87,3.02
					S1692.44,329.07,1695.45,330.41z"/>
			</g>
		</g>
	</g>
	<g>
		<g>
			<line class="st0" x1="1485.69" y1="230.3" x2="1543.46" y2="85.44"/>
			<g>
				<path class="st1" d="M1548.88,87.92c1.22-3.06-0.27-6.53-3.33-7.75c-3.06-1.22-6.53,0.27-7.75,3.33
					c-1.22,3.06,0.27,6.53,3.33,7.75S1547.67,90.98,1548.88,87.92z"/>
			</g>
		</g>
	</g>
	<line class="st0" x1="1275.06" y1="319.33" x2="1370.16" y2="571.22"/>
	<line class="st0" x1="1384.48" y1="-17.73" x2="1276.11" y2="317.78"/>
	<line class="st0" x1="1412.79" y1="-82.52" x2="1485.69" y2="230.3"/>
	<line class="st0" x1="1370.16" y1="571.22" x2="1111.91" y2="770.05"/>
	<line class="st0" x1="1115.02" y1="769.39" x2="856.4" y2="877.77"/>
	<line class="st0" x1="1220.75" y1="1040.69" x2="856.4" y2="877.77"/>
	<line class="st0" x1="856.4" y1="878.9" x2="620.53" y2="777.67"/>
	<path class="st0" d="M620.53,777.67"/>
	<line class="st0" x1="677.98" y1="1022.49" x2="313.72" y2="871.79"/>
	<line class="st0" x1="313.72" y1="871.79" x2="18.92" y2="833.78"/>
	<line class="st0" x1="313.72" y1="871.79" x2="210.78" y2="1028.39"/>
	<line class="st0" x1="213.05" y1="1028.39" x2="311.62" y2="1201.1"/>
	<line class="st0" x1="211.92" y1="1028.39" x2="-127.37" y2="1173.04"/>
	<line class="st0" x1="18.92" y1="834.36" x2="-166.4" y2="1120.89"/>
	<line class="st0" x1="18.92" y1="833.78" x2="-263.22" y2="1057.1"/>
	<line class="st0" x1="18.92" y1="833.78" x2="213.05" y2="1028.39"/>
	<line class="st0" x1="-149.86" y1="573" x2="18.92" y2="833.78"/>
	<line class="st0" x1="-166.4" y1="535.33" x2="173.16" y2="555.3"/>
	<line class="st0" x1="-222.99" y1="-1.7" x2="116.58" y2="152.56"/>
	<line class="st0" x1="173.16" y1="555.3" x2="18.92" y2="832.1"/>
	<line class="st0" x1="115.98" y1="151.6" x2="174.25" y2="555.76"/>
	<line class="st0" x1="115.98" y1="151.6" x2="-142.82" y2="514.33"/>
	<line class="st0" x1="115.98" y1="151.6" x2="-33.37" y2="-39.68"/>
	<line class="st0" x1="115.98" y1="151.6" x2="304.49" y2="-15.72"/>
	<line class="st0" x1="544.27" y1="302.49" x2="404.16" y2="-15.72"/>
	<line class="st0" x1="876.71" y1="262.96" x2="495.85" y2="-32.61"/>
	<line class="st0" x1="875.81" y1="262.39" x2="1109.64" y2="139.15"/>
	<line class="st0" x1="1110.77" y1="139.15" x2="1273.85" y2="317.78"/>
	<line class="st0" x1="798.66" y1="-40.62" x2="1109.71" y2="138.01"/>
	<line class="st0" x1="770.72" y1="-50.81" x2="879.21" y2="258.99"/>
	<line class="st0" x1="1391.04" y1="-82.52" x2="1110.77" y2="139.15"/>
	<line class="st0" x1="543.96" y1="301.92" x2="115.98" y2="151.6"/>
	<line class="st0" x1="313.72" y1="871.79" x2="320.3" y2="681.49"/>
	<line class="st0" x1="1220.75" y1="1040.69" x2="856.53" y2="1081.93"/>
	<line class="st0" x1="620.53" y1="777.67" x2="320.3" y2="681.49"/>
	<line class="st0" x1="1115.39" y1="422.17" x2="956.7" y2="653.93"/>
	<line class="st0" x1="957.04" y1="654.83" x2="856.4" y2="877.77"/>
	<g>
		<g>
			<line class="st0" x1="1112.73" y1="770.91" x2="956.79" y2="652.79"/>
			<g>
				<path class="st1" d="M1116.34,765.63c2.81,2.13,3.36,6.14,1.24,8.95c-2.13,2.81-6.14,3.36-8.95,1.23
					c-2.81-2.13-3.36-6.14-1.23-8.95C1109.52,764.05,1113.52,763.5,1116.34,765.63z"/>
			</g>
		</g>
	</g>
	<line class="st0" x1="1115.39" y1="422.17" x2="875.81" y2="262.39"/>
	<line class="st0" x1="875.81" y1="262.39" x2="545.41" y2="301.36"/>
	<line class="st0" x1="544.27" y1="302.49" x2="344.41" y2="402"/>
	<line class="st0" x1="344.41" y1="402" x2="320.3" y2="681.49"/>
	<line class="st0" x1="1370.16" y1="571.24" x2="1220.75" y2="1040.69"/>
	<g>
		<g>
			<line class="st0" x1="1275.62" y1="318.8" x2="1115.39" y2="422.17"/>
			<g>
				<ellipse class="st1" cx="1275.42" cy="318.95" rx="6.39" ry="6.39"/>
			</g>
		</g>
	</g>
	<text transform="matrix(1 0 0 1 920.054 697.5975)" class="st2 st3 st4">Prime </text>
	<text transform="matrix(1 0 0 1 892.444 733.8275)" class="st2 st3 st4">Brokerage</text>
	<text transform="matrix(1 0 0 1 843.2766 241.1898)" class="st2 st3 st5">Trading</text>
	<g>
		<text transform="matrix(1 0 0 1 803.5354 921.4247)" class="st2 st3 st6">Portfolio </text>
		<text transform="matrix(1 0 0 1 823.7654 957.6547)" class="st2 st3 st6">&amp; Tax</text>
	</g>
	<g>
		<text transform="matrix(1 0 0 1 575.8118 815.4188)" class="st2 st3 st5">Mining</text>
	</g>
	<g>
		<text transform="matrix(1 0 0 1 246.9309 722.5135)" class="st2 st3 st4">Investment  </text>
		<text transform="matrix(1 0 0 1 270.1809 758.7435)" class="st2 st3 st4">Banking</text>
	</g>
	<g>
		<text transform="matrix(1 0 0 1 290.3225 379.2791)" class="st2 st3 st4">Custody</text>
	</g>
	<g>
		<text transform="matrix(1 0 0 1 508.0979 241.1898)" class="st2 st3 st5">Asset  </text>
		<text transform="matrix(1 0 0 1 460.4579 277.4198)" class="st2 st3 st5">Management</text>
	</g>
	<g>
		<g>
			<line class="st7" x1="675.95" y1="581.39" x2="620.94" y2="775.62"/>
			<g>
				<path class="st2" d="M615.28,773.71c-0.9,3.17,0.94,6.46,4.11,7.36c3.17,0.9,6.46-0.94,7.36-4.11c0.9-3.17-0.94-6.46-4.11-7.36
					S616.18,770.54,615.28,773.71z"/>
			</g>
		</g>
	</g>
	<g>
		<g>
			<line class="st7" x1="658.09" y1="524.59" x2="320.99" y2="679.43"/>
			<g>
				<path class="st2" d="M318.78,673.89c-2.99,1.37-4.3,4.91-2.93,7.91c1.37,2.99,4.91,4.3,7.91,2.93c2.99-1.37,4.3-4.91,2.93-7.91
					S321.77,672.52,318.78,673.89z"/>
			</g>
		</g>
	</g>
	<g>
		<g>
			<line class="st7" x1="646.77" y1="503.05" x2="345.39" y2="402.66"/>
			<g>
				<path class="st2" d="M347.55,397.1c-3.12-1.04-6.5,0.65-7.54,3.77s0.65,6.5,3.77,7.54s6.5-0.65,7.54-3.77
					S350.68,398.14,347.55,397.1z"/>
			</g>
		</g>
	</g>
	<g>
		<g>
			<line class="st7" x1="696.81" y1="481.56" x2="545.7" y2="303.97"/>
			<g>
				<path class="st2" d="M550.43,300.33c-2.13-2.51-5.9-2.81-8.4-0.68s-2.81,5.9-0.68,8.4c2.13,2.51,5.9,2.81,8.4,0.68
					S552.56,302.84,550.43,300.33z"/>
			</g>
		</g>
	</g>
	<g>
		<g>
			<line class="st8" x1="718.13" y1="513.6" x2="856.03" y2="876.8"/>
			<g>
				<path class="st2" d="M850.9,878.47c1.06,2.78,4.17,4.18,6.95,3.13c2.78-1.06,4.18-4.17,3.13-6.95
					c-1.06-2.78-4.17-4.18-6.95-3.13C851.24,872.57,849.84,875.68,850.9,878.47z"/>
			</g>
		</g>
	</g>
	<g>
		<g>
			<line class="st7" x1="736.36" y1="445.61" x2="875.76" y2="263.48"/>
			<g>
				<path class="st2" d="M880.32,267.35c2-2.61,1.5-6.36-1.11-8.36s-6.36-1.5-8.36,1.11s-1.5,6.36,1.11,8.36
					S878.32,269.96,880.32,267.35z"/>
			</g>
		</g>
	</g>
	<g>
		<g>
			<line class="st0" x1="1370.57" y1="572.01" x2="956.7" y2="653.93"/>
			<g>
				<path class="st1" d="M1369.02,565.81c3.46-0.68,6.82,1.57,7.51,5.03c0.68,3.46-1.57,6.82-5.03,7.51
					c-3.46,0.68-6.82-1.57-7.51-5.03C1363.31,569.85,1365.56,566.49,1369.02,565.81z"/>
			</g>
		</g>
	</g>
	<g>
		<g>
			<line class="st7" x1="774.2" y1="514.33" x2="955.68" y2="652.26"/>
			<g>
				<path class="st2" d="M951.83,656.83c2.62,1.99,6.36,1.48,8.35-1.14s1.48-6.36-1.14-8.35s-6.36-1.48-8.35,1.14
					C948.7,651.09,949.21,654.83,951.83,656.83z"/>
			</g>
		</g>
	</g>
	<g>
		<g>
			<line class="st0" x1="1373.56" y1="569.48" x2="1555.26" y2="338.89"/>
			<g>
				<path class="st1" d="M1559.75,342.81c2.04-2.59,1.59-6.33-0.99-8.37s-6.33-1.59-8.37,0.99c-2.04,2.59-1.59,6.33,0.99,8.37
					S1557.72,345.4,1559.75,342.81z"/>
			</g>
		</g>
	</g>
	<line class="st0" x1="1370.16" y1="571.22" x2="1115.39" y2="422.17"/>
	<line class="st0" x1="1370.16" y1="571.22" x2="1485.69" y2="230.3"/>
	<line class="st0" x1="680.48" y1="1023.94" x2="588.37" y2="1201.1"/>
	<g>
		<g>
			<line class="st0" x1="1109.76" y1="138.42" x2="1115.39" y2="422.17"/>
			<g>
				<path class="st1" d="M1103.38,138.86c-0.07-3.53,2.73-6.44,6.26-6.51c3.53-0.07,6.44,2.73,6.51,6.26
					c0.07,3.53-2.73,6.44-6.26,6.51C1106.37,145.19,1103.45,142.39,1103.38,138.86z"/>
			</g>
		</g>
	</g>
	<g>
		<g>
			<line class="st7" x1="653.33" y1="501.35" x2="1114.71" y2="422.88"/>
			<g>
				<path class="st2" d="M1115.42,428.8c3.25-0.55,5.43-3.63,4.88-6.88s-3.63-5.43-6.88-4.88s-5.43,3.63-4.88,6.88
					C1109.09,427.17,1112.17,429.36,1115.42,428.8z"/>
			</g>
		</g>
	</g>
	<circle class="st9" cx="702.84" cy="484.29" r="118.92"/>
	<text transform="matrix(1 0 0 1 1060.7952 356.6288)" class="st2 st3 st4">Principal </text>
	<text transform="matrix(1 0 0 1 1038.1052 392.8588)" class="st2 st3 st4">Investments</text>
</g>
<text transform="matrix(1 0 0 1 542.34 112.3634)" class="st10 st11 st12">Our Capabilities</text>
<path class="st13" d="M748.82,443.9l0.05-0.03l-4.8-11.97c-1.52,0.34-3.15-0.33-3.98-1.75c-0.21-0.37-0.36-0.77-0.43-1.16
	l-13.92,0.32c-0.15,1.91-1.21,3.72-2.99,4.75c-2.87,1.66-6.55,0.67-8.21-2.2c-0.52-0.9-0.78-1.88-0.8-2.84L699.6,428
	c-0.22,0.95-0.82,1.81-1.73,2.33c-1.76,1.01-4,0.41-5.02-1.34c-1.01-1.76-0.41-4,1.34-5.01c0.9-0.52,1.94-0.62,2.87-0.34l5.49-11.45
	c-0.62-0.4-1.15-0.94-1.55-1.62c-1.31-2.27-0.53-5.17,1.74-6.49c2.27-1.31,5.18-0.53,6.49,1.74s0.53,5.18-1.74,6.49
	c-1.23,0.71-2.64,0.8-3.88,0.39l-5.49,11.45c0.43,0.3,0.8,0.7,1.08,1.18c0.28,0.48,0.43,0.99,0.48,1.51l14.14,1.02
	c0.29-1.7,1.31-3.26,2.91-4.19c1.99-1.14,4.35-1.03,6.18,0.1l9.17-11.94c-0.19-0.2-0.36-0.43-0.51-0.68c-1.01-1.75-0.41-4,1.34-5.01
	c1.76-1.01,4-0.41,5.02,1.35c1.01,1.75,0.41,4-1.34,5.01c-1.14,0.66-2.49,0.63-3.57,0.05l-9.16,11.94c0.42,0.39,0.79,0.85,1.09,1.38
	c0.42,0.73,0.67,1.5,0.76,2.28l13.92-0.32c0.15-1.08,0.78-2.09,1.8-2.67c1.76-1.01,4-0.41,5.01,1.34c1,1.74,0.43,3.95-1.28,4.98
	l4.8,11.97c0.84-0.21,1.71-0.18,2.51,0.07l6.39-13.64c-0.44-0.3-0.82-0.7-1.11-1.19c-1.01-1.76-0.41-4,1.34-5.01
	c1.76-1.01,4-0.41,5.01,1.34c1.01,1.76,0.41,4-1.34,5.02c-0.9,0.52-1.92,0.61-2.84,0.35l-6.39,13.64c0.6,0.38,1.11,0.91,1.49,1.56
	c0.11,0.18,0.2,0.38,0.28,0.57l24.34-6.34c-0.13-1.38,0.54-2.78,1.82-3.52c1.76-1.01,4-0.41,5.02,1.34c1.01,1.75,0.41,4-1.35,5.01
	c-0.24,0.14-0.5,0.25-0.77,0.33l3.55,26.25c1.65-0.01,3.27,0.84,4.16,2.37c1.31,2.27,0.54,5.17-1.74,6.49
	c-2.27,1.31-5.18,0.53-6.48-1.74c-1.1-1.89-0.74-4.22,0.73-5.71l-11.81-14.98l-0.08,0.05c-2.27,1.31-5.18,0.54-6.49-1.74
	c-1.31-2.27-0.53-5.18,1.74-6.48c2.27-1.31,5.18-0.53,6.49,1.74c1.09,1.89,0.73,4.23-0.73,5.71l11.81,14.98l0.08-0.05
	c0.37-0.22,0.77-0.37,1.16-0.48l-3.55-26.25c-1.23-0.04-2.42-0.69-3.08-1.83c-0.06-0.11-0.13-0.23-0.18-0.35l-24.34,6.34
	c0.22,1.76-0.61,3.56-2.24,4.5c-2.17,1.25-4.95,0.51-6.2-1.66C745.9,447.93,746.65,445.15,748.82,443.9L748.82,443.9z
	 M725.26,454.07c-0.25,1.65,0.04,3.4,0.93,4.96c2.11,3.65,6.78,4.9,10.43,2.8c3.65-2.11,4.9-6.78,2.8-10.43
	c-2.11-3.65-6.78-4.9-10.43-2.79c-0.48,0.28-0.92,0.6-1.31,0.96c-7.77-3.49-15.84-4.72-23.78-3.82c-1.52,0.17-3.03,0.42-4.53,0.75
	c-2.16-3.5-6.73-4.67-10.31-2.6c-2.88,1.66-4.27,4.92-3.69,8.02c-3.72,2.11-7.31,4.73-10.72,7.83c-3.38,3.07-6.26,6.28-8.67,9.56
	c-1.74-0.39-3.63-0.15-5.3,0.81c-2.63,1.52-3.98,4.42-3.64,7.27l-10.59,3.01l-0.17-0.33c-0.5-0.86-1.28-1.46-2.15-1.75l2.96-17.12
	c0.88,0.04,1.78-0.16,2.59-0.63c2.27-1.31,3.05-4.22,1.74-6.49s-4.22-3.05-6.48-1.74c-2.27,1.31-3.05,4.22-1.74,6.49
	c0.63,1.08,1.62,1.83,2.73,2.17l-2.95,17.12c-0.69-0.02-1.39,0.15-2.03,0.52c-0.64,0.36-1.13,0.89-1.47,1.49L628,475.88
	c0.36-1.39,0.19-2.9-0.58-4.24c-1.57-2.71-5.04-3.64-7.75-2.08c-2.71,1.57-3.64,5.04-2.07,7.75c1.56,2.71,5.03,3.64,7.75,2.07
	c1.01-0.58,1.77-1.43,2.25-2.4l11.47,4.25c-0.19,0.91-0.05,1.88,0.44,2.74c1.08,1.87,3.47,2.51,5.34,1.43
	c1.4-0.81,2.12-2.36,1.93-3.88l10.5-2.99c0.16,0.57,0.4,1.13,0.71,1.67c0.33,0.58,0.73,1.09,1.18,1.54
	c-0.96,2.56-1.66,5.12-2.12,7.65c-0.39,2.15-0.59,4.29-0.63,6.39c-10.31,7.11-15.86,14.29-14.35,20.03c0.07,0.24,0.12,0.44,0.18,0.6
	c1.74,4.99,8.39,7.57,18.24,7.84c2.69,0.07,5.67-0.01,8.86-0.26c1.45,1.18,3.01,2.27,4.68,3.26c5.35,3.16,11.81,5.25,19.23,5.92
	c0.17,0.55,0.4,1.09,0.7,1.6c2.11,3.65,6.78,4.9,10.43,2.79c1.9-1.1,3.16-2.9,3.62-4.88c7.54-1.11,14.25-3.45,19.88-6.99
	c2.08,1.22,4.74,1.31,6.98,0.02c1.44-0.83,2.46-2.09,3.01-3.52l14.19,4.22c-0.18,1.05,0,2.16,0.57,3.16
	c1.31,2.27,4.22,3.05,6.49,1.74l0.03-0.02l7.9,10.3c-0.28,0.32-0.49,0.69-0.62,1.09l-24.46-3.03c0-0.81-0.2-1.62-0.64-2.37
	c-1.31-2.27-4.21-3.05-6.48-1.74c-2.1,1.21-2.92,3.78-2,5.95l-22.01,12.69c-1.11-1.37-3.1-1.77-4.68-0.86
	c-1.76,1.01-2.35,3.26-1.34,5.01c1.01,1.76,3.26,2.36,5.02,1.35c1.58-0.92,2.22-2.83,1.6-4.48l22.01-12.69
	c0.29,0.38,0.63,0.71,1.01,0.99l-6.22,11.37c-0.98-0.34-2.09-0.28-3.06,0.28c-1.75,1.01-2.36,3.26-1.34,5.02
	c1.01,1.75,3.25,2.36,5.01,1.34c1.76-1.01,2.36-3.25,1.34-5.01c-0.24-0.42-0.56-0.78-0.92-1.06l6.22-11.37
	c1.3,0.51,2.81,0.45,4.12-0.3c1.15-0.67,1.92-1.75,2.22-2.95l24.47,3.03c0.03,0.46,0.17,0.91,0.41,1.34
	c0.86,1.48,2.75,1.99,4.23,1.13c1.48-0.85,1.99-2.75,1.13-4.23c-0.82-1.42-2.61-1.95-4.06-1.22l-7.91-10.29
	c1.5-1.48,1.88-3.84,0.78-5.75c-0.54-0.93-1.33-1.6-2.25-1.99l4-13.94c0.82,0.1,1.68-0.04,2.46-0.49c0.8-0.46,1.37-1.16,1.68-1.96
	l9.16,2.07c-0.14,1.17,0.09,2.4,0.72,3.5c1.57,2.71,5.04,3.64,7.75,2.08c2.71-1.57,3.64-5.03,2.08-7.75
	c-1.57-2.71-5.04-3.64-7.75-2.07c-1.24,0.72-2.11,1.83-2.54,3.09l-9.16-2.07c0.05-0.75-0.11-1.53-0.51-2.23
	c-1.08-1.87-3.47-2.51-5.34-1.43c-1.87,1.08-2.51,3.47-1.43,5.34c0.42,0.73,1.04,1.27,1.75,1.6l-4,13.94
	c-1.03-0.16-2.13,0.01-3.11,0.58c-0.91,0.53-1.58,1.31-1.97,2.2l-14.2-4.23c0.27-1.36,0.13-2.81-0.46-4.15
	c3.54-4.47,6.11-9.81,7.56-15.98c14.46-7.56,27.34-17.27,24.78-27.02c-0.06-0.24-0.13-0.44-0.18-0.6
	c-1.37-3.93-5.79-6.36-12.41-7.35c-0.16-0.4-0.36-0.8-0.6-1.18c-1.94-3-6.82-3.34-8.85-2.05c-6.26,3.97-2.16,14.78,7.02,10.87
	c2.09-0.89,1.57-1.3,2.05-2.14c4.24,0.6,6.93,1.79,7.56,3.59l0.05,0.15c1.5,5.71-7.32,12.52-18.33,18.57
	c0.19-4.03-0.73-6.91-2.49-8.86c0.11-1.34-0.17-2.72-0.89-3.97c-1.88-3.25-6.04-4.37-9.29-2.49c-1.3,0.75-2.25,1.86-2.82,3.13
	c-3.17,0.29-6.65,1-10.25,2c-9.98,2.77-20.96,7.79-28.22,11.37c-2.13-1.86-5.29-2.26-7.88-0.77c-3.25,1.88-4.37,6.04-2.49,9.29
	s6.04,4.36,9.29,2.49c2.36-1.36,3.59-3.92,3.38-6.46c7.09-3.49,17.74-8.37,27.27-11.01c3.12-0.86,6.11-1.48,8.77-1.7
	c0.13,0.32,0.28,0.63,0.45,0.94c1.88,3.25,6.04,4.36,9.29,2.49l0.04-0.02c0.61,1.24,0.84,2.87,0.58,4.93
	c-0.06,0.5-0.13,1.01-0.21,1.5c-12.74,6.38-26.55,11.46-30.36,12.71c-6.15,2.02-12.11,3.72-17.75,5.08
	c-8.11,1.95-15.64,3.25-22.22,3.87c-2.78-2.69-4.95-5.81-6.48-9.23c-1.38-3.11-2.24-6.47-2.52-9.99
	c15.86-10.34,33.5-17.73,51.79-22.78c2.08,2.28,6.13,2.46,8.17,1.17c2.04-1.29,2.37-2.32,2.72-3.88l0,0
	c0.4-1.76,0.01-3.54-0.98-5.07l-0.01-0.01l0,0v-0.01l-0.01-0.01v-0.01l-0.01-0.01v-0.01v-0.01l-0.04-0.05l-0.01-0.01v-0.01
	l-0.01-0.01v-0.01l-0.01-0.01l0,0l-0.01-0.01v-0.01l0,0l-0.07-0.09v-0.01v-0.01l-0.01-0.01l0,0l0,0l-0.06-0.08l0,0
	c-2.04-2.6-5.72-3.32-8.5-1.56c-1.59,1.01-2.56,2.62-2.81,4.36c-17.57,4.85-34.53,11.82-49.98,21.38c0.08-0.67,0.18-1.35,0.3-2.02
	c0.38-2.12,0.96-4.27,1.75-6.42c1.44,0.11,2.93-0.19,4.27-0.97c3.54-2.04,4.75-6.56,2.71-10.1c-0.15-0.26-0.32-0.52-0.5-0.75
	c2.18-2.92,4.77-5.79,7.81-8.55c3.14-2.86,6.44-5.26,9.85-7.19c2.39,2.03,5.89,2.45,8.76,0.79c2.14-1.24,3.46-3.36,3.76-5.63
	c1.33-0.29,2.67-0.51,4.02-0.66C711.38,450.03,718.44,451.08,725.26,454.07L725.26,454.07z M677.08,523.15
	c5.32-0.75,11.09-1.85,17.15-3.31c5.87-1.42,11.98-3.15,18.19-5.19c4.54-1.5,15.47-5.35,26.63-10.62c-1.24,3.46-2.92,6.57-5,9.3
	c-1.93-0.81-4.2-0.73-6.14,0.39c-2.82,1.63-4.07,4.95-3.2,7.94c-4.89,2.98-10.72,4.97-17.3,5.96c-0.08-0.16-0.16-0.31-0.25-0.47
	c-2.11-3.65-6.78-4.9-10.43-2.79c-1.53,0.88-2.63,2.21-3.25,3.72C687.15,527.48,681.65,525.75,677.08,523.15L677.08,523.15z
	 M664.06,518.7c-1.24,0.03-2.44,0.03-3.59,0c-7.39-0.21-12.16-1.53-13.03-4.02l-0.05-0.15c-0.77-2.91,2.82-7.24,9.46-12.17
	c0.49,3.06,1.37,6.01,2.61,8.79C660.65,513.84,662.2,516.38,664.06,518.7L664.06,518.7z M675.81,428.78l-6.22,11.36
	c0.53,0.38,0.98,0.88,1.33,1.48c1.31,2.27,0.54,5.18-1.74,6.49c-2.27,1.31-5.18,0.53-6.48-1.74c-1.31-2.27-0.53-5.18,1.74-6.49
	l0.17-0.1l-7.1-18.98c-1.99,0.48-4.14-0.38-5.21-2.25c-1.31-2.27-0.53-5.18,1.74-6.49s5.17-0.53,6.48,1.74s0.53,5.17-1.74,6.48
	l-0.17,0.1l7.1,18.98c0.96-0.23,1.95-0.15,2.85,0.21l6.22-11.37c-0.36-0.28-0.68-0.64-0.92-1.06c-1.01-1.75-0.41-4,1.34-5.01
	c1.76-1.01,4-0.41,5.01,1.34c1.01,1.76,0.41,4-1.34,5.02C677.9,429.06,676.78,429.13,675.81,428.78L675.81,428.78z M672.22,553.6
	l6.09,0.31c0.14-0.92,0.49-1.81,1.04-2.58l-18.22-15.79c-0.16,0.13-0.33,0.26-0.52,0.36c-0.85,0.49-1.81,0.6-2.69,0.39l-3.52,8.42
	c0.95,0.51,1.77,1.28,2.35,2.28c1.66,2.87,0.68,6.55-2.2,8.2c-2.87,1.66-6.55,0.68-8.21-2.2c-1.66-2.87-0.67-6.55,2.2-8.2
	c1.5-0.87,3.23-1.01,4.77-0.54l3.52-8.42c-0.49-0.31-0.92-0.74-1.24-1.28c-1.01-1.75-0.41-4,1.34-5.01c1.76-1.01,4-0.41,5.01,1.34
	c0.7,1.21,0.63,2.65-0.05,3.76l18.22,15.79c0.33-0.32,0.71-0.6,1.13-0.84c2.87-1.66,6.55-0.67,8.2,2.2c1.66,2.87,0.68,6.55-2.2,8.21
	c-2.87,1.66-6.55,0.67-8.2-2.2c-0.5-0.86-0.76-1.79-0.8-2.72l-6.09-0.31c-0.21,0.98-0.82,1.86-1.75,2.4c-1.75,1.01-4,0.41-5.01-1.34
	c-1.01-1.76-0.41-4,1.34-5.01s4-0.41,5.02,1.34C672.01,552.62,672.16,553.11,672.22,553.6L672.22,553.6z M628.9,526.64
	c-1.76,1.01-4,0.41-5.01-1.34c-1.01-1.76-0.41-4,1.35-5.01c1.76-1.01,4-0.41,5.01,1.34S630.65,525.63,628.9,526.64L628.9,526.64z
	 M633.11,437.33c1.48-0.86,3.37-0.35,4.23,1.13c0.85,1.48,0.35,3.38-1.13,4.23s-3.37,0.35-4.23-1.13
	C631.12,440.07,631.63,438.18,633.11,437.33z"/>
</svg>
