<svg id="svg3070" xmlns="http://www.w3.org/2000/svg" viewBox="0 0 60 60"><defs><style>.cls-1{fill:#069;}.cls-2{fill:#fff;}</style></defs><title>LinkedIn_Logo</title><circle fill="#FFFFFF" cx="30" cy="30" r="30"/><g transform="translate(18 18)" id="layer1"><g id="g3019"><path id="path14" class="cls-1" d="M18,19.72A1.74,1.74,0,0,1,19.77,18H40.23A1.74,1.74,0,0,1,42,19.72V40.28A1.74,1.74,0,0,1,40.23,42H19.77A1.74,1.74,0,0,1,18,40.28Z" transform="translate(-18 -18)"/><path id="path28" class="cls-2" d="M25.28,38.09V27.25H21.65V38.09ZM23.46,25.77a1.88,1.88,0,1,0,0-3.74,1.89,1.89,0,0,0-2,1.87,1.86,1.86,0,0,0,2,1.87Z" transform="translate(-18 -18)"/><path id="path30" class="cls-2" d="M27.28,38.09h3.63V32a2.34,2.34,0,0,1,.12-.88,2,2,0,0,1,1.86-1.32c1.31,0,1.83,1,1.83,2.45v5.8h3.63V31.88c0-3.33-1.79-4.88-4.18-4.88a3.64,3.64,0,0,0-3.29,1.82h0V27.25H27.28c0,1,0,10.84,0,10.84Z" transform="translate(-18 -18)"/></g></g></svg>
